<?xml version="1.0" encoding="UTF-8"?>
<svg id="Layer_1" data-name="Layer 1" xmlns="http://www.w3.org/2000/svg" viewBox="0 0 850 568.89">
  <defs>
    <style>
      .cls-1 {
        stroke-width: 2.85px;
      }

      .cls-1, .cls-2, .cls-3, .cls-4, .cls-5, .cls-6, .cls-7, .cls-8, .cls-9, .cls-10, .cls-11, .cls-12, .cls-13, .cls-14, .cls-15, .cls-16, .cls-17, .cls-18, .cls-19, .cls-20, .cls-21, .cls-22, .cls-23, .cls-24, .cls-25, .cls-26, .cls-27, .cls-28, .cls-29, .cls-30, .cls-31, .cls-32, .cls-33, .cls-34 {
        fill: none;
      }

      .cls-1, .cls-3, .cls-4, .cls-35, .cls-36, .cls-37, .cls-5, .cls-6, .cls-38, .cls-39, .cls-7, .cls-40, .cls-41, .cls-42, .cls-8, .cls-9, .cls-43, .cls-44, .cls-45, .cls-10, .cls-11, .cls-12, .cls-46, .cls-47, .cls-48, .cls-49, .cls-50, .cls-51, .cls-52, .cls-53, .cls-54, .cls-13, .cls-55, .cls-56, .cls-14, .cls-57, .cls-58, .cls-15, .cls-59, .cls-60, .cls-16, .cls-61, .cls-62, .cls-63, .cls-64, .cls-65, .cls-66, .cls-67, .cls-17, .cls-68, .cls-69, .cls-70, .cls-71, .cls-18, .cls-19, .cls-72, .cls-73, .cls-74, .cls-75, .cls-76, .cls-77, .cls-78, .cls-79, .cls-80, .cls-81, .cls-82, .cls-83, .cls-84, .cls-85, .cls-86, .cls-87, .cls-20, .cls-88, .cls-89, .cls-90, .cls-21, .cls-91, .cls-92, .cls-93, .cls-22, .cls-94, .cls-23, .cls-95, .cls-24, .cls-96, .cls-97, .cls-25, .cls-98, .cls-26, .cls-27, .cls-99, .cls-100, .cls-29, .cls-31, .cls-32, .cls-101, .cls-102, .cls-33, .cls-103, .cls-104, .cls-34, .cls-105, .cls-106, .cls-107, .cls-108 {
        isolation: isolate;
      }

      .cls-1, .cls-3, .cls-4, .cls-35, .cls-36, .cls-37, .cls-5, .cls-6, .cls-38, .cls-39, .cls-7, .cls-40, .cls-41, .cls-42, .cls-8, .cls-9, .cls-43, .cls-44, .cls-45, .cls-10, .cls-11, .cls-12, .cls-47, .cls-48, .cls-49, .cls-50, .cls-51, .cls-52, .cls-53, .cls-54, .cls-13, .cls-55, .cls-56, .cls-14, .cls-57, .cls-58, .cls-15, .cls-16, .cls-63, .cls-64, .cls-65, .cls-66, .cls-67, .cls-17, .cls-68, .cls-69, .cls-19, .cls-72, .cls-73, .cls-74, .cls-75, .cls-76, .cls-77, .cls-78, .cls-79, .cls-80, .cls-81, .cls-82, .cls-83, .cls-84, .cls-85, .cls-86, .cls-87, .cls-20, .cls-88, .cls-89, .cls-90, .cls-21, .cls-91, .cls-92, .cls-93, .cls-22, .cls-94, .cls-23, .cls-95, .cls-24, .cls-25, .cls-26, .cls-27, .cls-29, .cls-31, .cls-32, .cls-101, .cls-102, .cls-33, .cls-103, .cls-104, .cls-34, .cls-105, .cls-106, .cls-107, .cls-108 {
        font-family: Lato-Regular, Lato;
      }

      .cls-1, .cls-3, .cls-4, .cls-5, .cls-6, .cls-7, .cls-8, .cls-9, .cls-10, .cls-11, .cls-12, .cls-13, .cls-14, .cls-15, .cls-16, .cls-17, .cls-19, .cls-20, .cls-21, .cls-22, .cls-23, .cls-24, .cls-25, .cls-26, .cls-27, .cls-29, .cls-31, .cls-32, .cls-33, .cls-34 {
        stroke: #fff;
        stroke-linecap: round;
        stroke-linejoin: round;
      }

      .cls-1, .cls-75, .cls-76 {
        font-size: 11.41px;
      }

      .cls-109 {
        fill: rgba(255, 255, 255, 0);
      }

      .cls-3 {
        stroke-width: 3.06px;
      }

      .cls-3, .cls-65, .cls-66 {
        font-size: 12.23px;
      }

      .cls-4 {
        stroke-width: 3.58px;
      }

      .cls-4, .cls-47, .cls-48 {
        font-size: 14.3px;
      }

      .cls-110 {
        letter-spacing: -.02em;
      }

      .cls-35, .cls-38, .cls-42, .cls-111, .cls-48, .cls-52, .cls-61, .cls-62, .cls-78, .cls-83, .cls-85, .cls-102, .cls-107 {
        fill: #00847e;
      }

      .cls-35, .cls-40, .cls-22 {
        font-size: 11.23px;
      }

      .cls-36, .cls-37, .cls-19 {
        font-size: 11.58px;
      }

      .cls-36, .cls-112, .cls-53, .cls-58, .cls-59, .cls-60, .cls-79, .cls-88, .cls-90, .cls-92 {
        fill: #4c6a9c;
      }

      .cls-37, .cls-39, .cls-40, .cls-41, .cls-43, .cls-47, .cls-49, .cls-51, .cls-54, .cls-55, .cls-57, .cls-64, .cls-65, .cls-68, .cls-72, .cls-74, .cls-76, .cls-77, .cls-81, .cls-82, .cls-84, .cls-86, .cls-89, .cls-91, .cls-93, .cls-95, .cls-101, .cls-104, .cls-105, .cls-108 {
        fill: #fff;
      }

      .cls-5 {
        stroke-width: 2.88px;
      }

      .cls-5, .cls-80, .cls-81 {
        font-size: 11.52px;
      }

      .cls-6 {
        stroke-width: 2.86px;
      }

      .cls-6, .cls-38, .cls-39 {
        font-size: 11.44px;
      }

      .cls-7 {
        stroke-width: 3.04px;
      }

      .cls-7, .cls-83, .cls-84 {
        font-size: 12.15px;
      }

      .cls-113 {
        letter-spacing: -.08em;
      }

      .cls-114 {
        letter-spacing: -.08em;
      }

      .cls-41, .cls-42, .cls-13 {
        font-size: 11.36px;
      }

      .cls-115 {
        letter-spacing: -.02em;
      }

      .cls-8 {
        stroke-width: 2.83px;
      }

      .cls-8, .cls-94, .cls-95 {
        font-size: 11.32px;
      }

      .cls-9 {
        stroke-width: 2.8px;
      }

      .cls-9, .cls-92, .cls-93 {
        font-size: 11.18px;
      }

      .cls-43, .cls-44, .cls-11 {
        font-size: 11.92px;
      }

      .cls-44, .cls-116, .cls-96, .cls-97, .cls-106 {
        fill: #e56e5a;
      }

      .cls-45 {
        fill: #666;
        font-size: 16.2px;
      }

      .cls-10 {
        stroke-width: 2.95px;
      }

      .cls-10, .cls-51, .cls-52 {
        font-size: 11.82px;
      }

      .cls-117 {
        letter-spacing: -.03em;
      }

      .cls-118 {
        letter-spacing: -.03em;
      }

      .cls-119 {
        letter-spacing: -.03em;
      }

      .cls-11 {
        stroke-width: 2.98px;
      }

      .cls-120, .cls-87, .cls-98 {
        fill: #9a5129;
      }

      .cls-121, .cls-50, .cls-56, .cls-63, .cls-69, .cls-73, .cls-75, .cls-80, .cls-94, .cls-99, .cls-100, .cls-103 {
        fill: #a2559c;
      }

      .cls-122, .cls-66, .cls-70, .cls-71 {
        fill: #883039;
      }

      .cls-123 {
        letter-spacing: 0em;
      }

      .cls-12 {
        stroke-width: 2.86px;
      }

      .cls-12, .cls-57, .cls-58 {
        font-size: 11.43px;
      }

      .cls-46 {
        fill: #555;
        font-family: PlayfairDisplay-Regular, 'Playfair Display';
        font-size: 25.2px;
      }

      .cls-124 {
        letter-spacing: -.02em;
      }

      .cls-49, .cls-50, .cls-21 {
        font-size: 11.15px;
      }

      .cls-53, .cls-54, .cls-31 {
        font-size: 11.06px;
      }

      .cls-13 {
        stroke-width: 2.84px;
      }

      .cls-55, .cls-56, .cls-15 {
        font-size: 11.27px;
      }

      .cls-14 {
        stroke-width: 3.01px;
      }

      .cls-14, .cls-101, .cls-102 {
        font-size: 12.05px;
      }

      .cls-15 {
        stroke-width: 2.82px;
      }

      .cls-59, .cls-60, .cls-61, .cls-62, .cls-70, .cls-71, .cls-96, .cls-97, .cls-98, .cls-99, .cls-100 {
        opacity: .8;
        stroke-width: .5px;
      }

      .cls-59, .cls-62, .cls-71, .cls-96, .cls-100 {
        stroke: #666;
      }

      .cls-60, .cls-61, .cls-70, .cls-97, .cls-98, .cls-99 {
        stroke: #333;
      }

      .cls-125 {
        letter-spacing: 0em;
      }

      .cls-126 {
        letter-spacing: 0em;
      }

      .cls-127 {
        letter-spacing: -.01em;
      }

      .cls-16 {
        stroke-width: 2.82px;
      }

      .cls-16, .cls-72, .cls-73 {
        font-size: 11.29px;
      }

      .cls-63, .cls-64, .cls-26 {
        font-size: 11.13px;
      }

      .cls-67 {
        font-size: 12.6px;
      }

      .cls-128 {
        letter-spacing: 0em;
      }

      .cls-129 {
        letter-spacing: -.02em;
      }

      .cls-17 {
        stroke-width: 2.94px;
      }

      .cls-17, .cls-68, .cls-69 {
        font-size: 11.76px;
      }

      .cls-130 {
        letter-spacing: -.02em;
      }

      .cls-131 {
        letter-spacing: 0em;
      }

      .cls-132 {
        letter-spacing: -.02em;
      }

      .cls-133 {
        letter-spacing: -.02em;
      }

      .cls-134 {
        letter-spacing: -.02em;
      }

      .cls-18 {
        opacity: .9;
        stroke: #ccc;
        stroke-dasharray: 0 0 2 2;
      }

      .cls-19 {
        stroke-width: 2.89px;
      }

      .cls-135 {
        letter-spacing: -.03em;
      }

      .cls-74, .cls-79, .cls-20 {
        font-size: 11.65px;
      }

      .cls-77, .cls-78, .cls-24 {
        font-size: 11.74px;
      }

      .cls-136 {
        letter-spacing: 0em;
      }

      .cls-137 {
        letter-spacing: -.02em;
      }

      .cls-138 {
        letter-spacing: -.02em;
      }

      .cls-82, .cls-85, .cls-25 {
        font-size: 12.36px;
      }

      .cls-139 {
        letter-spacing: -.01em;
      }

      .cls-86, .cls-87, .cls-27 {
        font-size: 11.4px;
      }

      .cls-20 {
        stroke-width: 2.91px;
      }

      .cls-88, .cls-89, .cls-33 {
        font-size: 12.12px;
      }

      .cls-90, .cls-91, .cls-32 {
        font-size: 11.3px;
      }

      .cls-21 {
        stroke-width: 2.79px;
      }

      .cls-22 {
        stroke-width: 2.81px;
      }

      .cls-23 {
        stroke-width: 2.78px;
      }

      .cls-23, .cls-103, .cls-104 {
        font-size: 11.12px;
      }

      .cls-24 {
        stroke-width: 2.93px;
      }

      .cls-25 {
        stroke-width: 3.09px;
      }

      .cls-26 {
        stroke-width: 2.78px;
      }

      .cls-27 {
        stroke-width: 2.85px;
      }

      .cls-140 {
        letter-spacing: -.02em;
      }

      .cls-141 {
        letter-spacing: 0em;
      }

      .cls-28 {
        stroke: #999;
      }

      .cls-29 {
        stroke-width: 3.14px;
      }

      .cls-29, .cls-105, .cls-106 {
        font-size: 12.56px;
      }

      .cls-30 {
        stroke: #ddd;
        stroke-dasharray: 0 0 3 2;
      }

      .cls-142 {
        letter-spacing: -.01em;
      }

      .cls-31 {
        stroke-width: 2.77px;
      }

      .cls-32 {
        stroke-width: 2.83px;
      }

      .cls-143 {
        letter-spacing: -.01em;
      }

      .cls-33 {
        stroke-width: 3.03px;
      }

      .cls-34 {
        stroke-width: 3.51px;
      }

      .cls-34, .cls-107, .cls-108 {
        font-size: 14.02px;
      }

      .cls-144 {
        letter-spacing: -.11em;
      }
    </style>
  </defs>
  <text class="cls-46" transform="translate(15 36.92)"><tspan x="0" y="0">Cha</tspan><tspan class="cls-141" x="44.7" y="0">ng</tspan><tspan class="cls-128" x="72.55" y="0">e in inequalit</tspan><tspan class="cls-135" x="220.35" y="0">y</tspan><tspan class="cls-128" x="232.39" y="0" xml:space="preserve"> acco</tspan><tspan class="cls-115" x="289.52" y="0">r</tspan><tspan x="300.23" y="0">di</tspan><tspan class="cls-141" x="322.25" y="0">n</tspan><tspan x="337.04" y="0">g</tspan><tspan class="cls-143" x="350.35" y="0"> </tspan><tspan x="356.3" y="0">to</tspan><tspan class="cls-143" x="379.03" y="0"> </tspan><tspan class="cls-131" x="384.98" y="0">t</tspan><tspan class="cls-123" x="393.9" y="0">w</tspan><tspan x="413.07" y="0">o metrics, 1993-20</tspan><tspan class="cls-127" x="618.27" y="0">1</tspan><tspan class="cls-139" x="627.29" y="0">5</tspan></text>
  <text class="cls-67" transform="translate(332.02 544.5)"><tspan x="0" y="0">Change in Gini – PIP``</tspan></text>
  <text class="cls-45" transform="translate(129.89 523.54)"><tspan x="0" y="0">-15</tspan></text>
  <text class="cls-45" transform="translate(243.09 523.54)"><tspan x="0" y="0">-10</tspan></text>
  <text class="cls-45" transform="translate(360.89 523.54)"><tspan x="0" y="0">-5</tspan></text>
  <text class="cls-45" transform="translate(476.9 523.54)"><tspan x="0" y="0">0</tspan></text>
  <text class="cls-45" transform="translate(590 523.54)"><tspan x="0" y="0">5</tspan></text>
  <text class="cls-45" transform="translate(698.5 523.54)"><tspan x="0" y="0">10</tspan></text>
  <text class="cls-67" transform="translate(25.96 381.76) rotate(-90)"><tspan x="0" y="0">Change in </tspan><tspan class="cls-144" x="57.17" y="0">T</tspan><tspan class="cls-136" x="63.28" y="0">op 1% share – WID`</tspan></text>
  <text class="cls-45" transform="translate(36.68 490.48)"><tspan x="0" y="0">-20</tspan></text>
  <text class="cls-45" transform="translate(36.68 430.18)"><tspan x="0" y="0">-15</tspan></text>
  <text class="cls-45" transform="translate(36.68 369.88)"><tspan x="0" y="0">-10</tspan></text>
  <text class="cls-45" transform="translate(46.07 309.48)"><tspan x="0" y="0">-5</tspan></text>
  <text class="cls-45" transform="translate(51.69 249.18)"><tspan x="0" y="0">0</tspan></text>
  <text class="cls-45" transform="translate(51.69 188.88)"><tspan x="0" y="0">5</tspan></text>
  <text class="cls-45" transform="translate(42.3 128.48)"><tspan x="0" y="0">10</tspan></text>
  <line class="cls-30" x1="66.09" y1="485.3" x2="718.09" y2="485.3"/>
  <line class="cls-30" x1="66.09" y1="425" x2="718.09" y2="425"/>
  <line class="cls-30" x1="66.09" y1="364.7" x2="718.09" y2="364.7"/>
  <line class="cls-30" x1="66.09" y1="304.3" x2="718.09" y2="304.3"/>
  <line class="cls-28" x1="66.09" y1="244" x2="718.09" y2="244"/>
  <line class="cls-30" x1="66.09" y1="183.7" x2="718.09" y2="183.7"/>
  <line class="cls-30" x1="66.09" y1="123.3" x2="718.09" y2="123.3"/>
  <line class="cls-30" x1="142.1" y1="502.34" x2="142.1" y2="66"/>
  <line class="cls-30" x1="255.3" y1="502.34" x2="255.3" y2="66"/>
  <line class="cls-30" x1="368.4" y1="502.34" x2="368.4" y2="66"/>
  <line class="cls-28" x1="481.6" y1="502.34" x2="481.6" y2="66"/>
  <line class="cls-30" x1="594.7" y1="502.34" x2="594.7" y2="66"/>
  <line class="cls-30" x1="707.9" y1="502.34" x2="707.9" y2="66"/>
  <rect class="cls-2" x="66.09" y="66" width="652" height="436.34"/>
  <path id="path-4" class="cls-18" d="M66.1,358.6l1.3-.4,1.3-.4,1.3-.4,1.3-.4,1.3-.4,1.3-.4,1.3-.4,1.3-.4,1.3-.4,1.3-.4,1.3-.4,1.3-.4,1.3-.4,1.3-.4,1.4-.4,1.3-.4,1.3-.4,1.3-.4,1.3-.4,1.3-.4,1.3-.4,1.3-.4,1.3-.4,1.3-.4,1.3-.4,1.3-.4,1.3-.4,1.3-.4,1.3-.4,1.3-.4,1.3-.4,1.3-.4,1.3-.4,1.3-.4,1.3-.4,1.3-.4,1.3-.4,1.3-.4,1.3-.4,1.4-.4,1.3-.4,1.3-.4,1.3-.4,1.3-.4,1.3-.4,1.3-.4,1.3-.4,1.3-.4,1.3-.4,1.3-.4,1.3-.4,1.3-.4,1.3-.4,1.3-.4,1.3-.4,1.3-.4,1.3-.4,1.3-.4,1.3-.4,1.3-.4,1.3-.4,1.3-.4,1.3-.4,1.3-.4,1.4-.4,1.3-.4,1.3-.4,1.3-.4,1.3-.4,1.3-.4,1.3-.4,1.3-.4,1.3-.4,1.3-.4,1.3-.4,1.3-.4,1.3-.4,1.3-.4,1.3-.4,1.3-.4,1.3-.4,1.3-.4,1.3-.4,1.3-.4,1.3-.4,1.3-.4,1.3-.4,1.3-.4,1.3-.4,1.4-.4,1.3-.4,1.3-.4,1.3-.4,1.3-.4,1.3-.4,1.3-.4,1.3-.4,1.3-.4,1.3-.4,1.3-.4,1.3-.4,1.3-.4,1.3-.4,1.3-.4,1.3-.4,1.3-.4,1.3-.4,1.3-.4,1.3-.4,1.3-.4,1.3-.4,1.3-.4,1.3-.4,1.3-.4,1.4-.4,1.3-.4,1.3-.4,1.3-.4,1.3-.4,1.3-.4,1.3-.4,1.3-.4,1.3-.4,1.3-.4,1.3-.4,1.3-.4,1.3-.4,1.3-.4,1.3-.4,1.3-.4,1.3-.4,1.3-.4,1.3-.4,1.3-.4,1.3-.4,1.3-.4,1.3-.4,1.3-.4,1.3-.4,1.4-.4,1.3-.4,1.3-.4,1.3-.4,1.3-.4,1.3-.4,1.3-.4,1.3-.4,1.3-.4,1.3-.4,1.3-.4,1.3-.4,1.3-.4,1.3-.4,1.3-.4,1.3-.4,1.3-.4,1.3-.4,1.3-.4,1.3-.4,1.3-.4,1.3-.4,1.3-.4,1.3-.4,1.3-.4,1.4-.4,1.3-.4,1.3-.4,1.3-.4,1.3-.4,1.3-.4,1.3-.4,1.3-.4,1.3-.4,1.3-.4,1.3-.4,1.3-.4,1.3-.4,1.3-.4,1.3-.4,1.3-.4,1.3-.4,1.3-.4,1.3-.4,1.3-.4,1.3-.4,1.3-.4,1.3-.4,1.3-.4,1.3-.4,1.4-.4,1.3-.4,1.3-.4,1.3-.4,1.3-.4,1.3-.4,1.3-.4,1.3-.4,1.3-.4,1.3-.4,1.3-.4,1.3-.4,1.3-.4,1.3-.4,1.3-.4,1.3-.4,1.3-.4,1.3-.4,1.3-.4,1.3-.4,1.3-.4,1.3-.4,1.3-.4,1.3-.4,1.3-.4,1.4-.4,1.3-.4,1.3-.4,1.3-.4,1.3-.4,1.3-.4,1.3-.4,1.3-.4,1.3-.4,1.3-.4,1.3-.4,1.3-.4,1.3-.4,1.3-.4,1.3-.4,1.3-.4,1.3-.4,1.3-.4,1.3-.4,1.3-.4,1.3-.4,1.3-.4,1.3-.4,1.3-.4,1.3-.4,1.4-.4,1.3-.4,1.3-.4,1.3-.4,1.3-.4,1.3-.4,1.3-.4,1.3-.4,1.3-.4,1.3-.4,1.3-.4,1.3-.4,1.3-.4,1.3-.4,1.3-.4,1.3-.4,1.3-.4,1.3-.4,1.3-.4,1.3-.4,1.3-.4,1.3-.4,1.3-.4,1.3-.4,1.3-.4,1.4-.4,1.3-.4,1.3-.4,1.3-.4,1.3-.4,1.3-.4,1.3-.4,1.3-.4,1.3-.4,1.3-.4,1.3-.4,1.3-.4,1.3-.4,1.3-.4,1.3-.4,1.3-.4,1.3-.4,1.3-.4,1.3-.4,1.3-.4,1.3-.4,1.3-.4,1.3-.4,1.3-.4,1.3-.4,1.4-.4,1.3-.4,1.3-.4,1.3-.4,1.3-.4,1.3-.4,1.3-.4,1.3-.4,1.3-.4,1.3-.4,1.3-.4,1.3-.4,1.3-.4,1.3-.4,1.3-.4,1.3-.4,1.3-.4,1.3-.4,1.3-.4,1.3-.4,1.3-.4,1.3-.4,1.3-.4,1.3-.4,1.3-.4,1.4-.4,1.3-.4,1.3-.4,1.3-.4,1.3-.4,1.3-.4,1.3-.4,1.3-.4,1.3-.4,1.3-.4,1.3-.4,1.3-.4,1.3-.4,1.3-.4,1.3-.4,1.3-.4,1.3-.4,1.3-.4,1.3-.4,1.3-.4,1.3-.4,1.3-.4,1.3-.4,1.3-.4,1.3-.4,1.4-.4,1.3-.4,1.3-.4,1.3-.4,1.3-.4,1.3-.4,1.3-.4,1.3-.4,1.3-.4,1.3-.4,1.3-.4,1.3-.4,1.3-.4,1.3-.4,1.3-.4,1.3-.4,1.3-.4,1.3-.4,1.3-.4,1.3-.4,1.3-.4,1.3-.4,1.3-.4,1.3-.4,1.3-.4,1.4-.4,1.3-.4,1.3-.4,1.3-.4,1.3-.4,1.3-.4,1.3-.4,1.3-.4,1.3-.4,1.3-.4,1.3-.4,1.3-.4,1.3-.4,1.3-.4,1.3-.4,1.3-.4,1.3-.4,1.3-.4,1.3-.4,1.3-.4,1.3-.4,1.3-.4,1.3-.4,1.3-.4,1.3-.4,1.4-.4,1.3-.4,1.3-.4,1.3-.4,1.3-.4,1.3-.4,1.3-.4,1.3-.4,1.3-.4,1.3-.4,1.3-.4,1.3-.4,1.3-.4,1.3-.4,1.3-.4,1.3-.4,1.3-.4,1.3-.4,1.3-.4,1.3-.4,1.3-.4,1.3-.4,1.3-.4,1.3-.4,1.3-.4,1.4-.4,1.3-.4,1.3-.4,1.3-.4,1.3-.4,1.3-.4,1.3-.4,1.3-.4,1.3-.4,1.3-.4,1.3-.4,1.3-.4,1.3-.4,1.3-.4,1.3-.4,1.3-.4,1.3-.4,1.3-.4,1.3-.4,1.3-.4,1.3-.4,1.3-.4,1.3-.4,1.3-.4,1.3-.4,1.4-.4,1.3-.4,1.3-.4,1.3-.4,1.3-.4,1.3-.4,1.3-.4,1.3-.4,1.3-.4,1.3-.4,1.3-.4,1.3-.4,1.3-.4,1.3-.4,1.3-.4,1.3-.4,1.3-.4,1.3-.4,1.3-.4,1.3-.4,1.3-.4,1.3-.4,1.3-.4,1.3-.4,1.3-.4,1.4-.4,1.3-.4,1.3-.4,1.3-.4,1.3-.4,1.3-.4,1.3-.4,1.3-.4,1.3-.4,1.3-.4,1.3-.4,1.3-.4,1.3-.4,1.3-.4,1.3-.4,1.3-.4,1.3-.4,1.3-.4,1.3-.4,1.3-.4,1.3-.4,1.3-.4,1.3-.4,1.3-.4,1.3-.4,1.4-.4,1.3-.4,1.3-.4,1.3-.4,1.3-.4,1.3-.4,1.3-.4,1.3-.4,1.3-.4,1.3-.4"/>
  <rect class="cls-2" x="56.09" y="56" width="672" height="456.34"/>
  <circle class="cls-61" cx="588" cy="187" r="18"/>
  <circle class="cls-61" cx="549" cy="132" r="16.48"/>
  <circle class="cls-97" cx="501" cy="186" r="8.51"/>
  <circle class="cls-61" cx="645" cy="238" r="7.41"/>
  <circle class="cls-70" cx="296" cy="255" r="6.71"/>
  <circle class="cls-61" cx="437" cy="217" r="6.29"/>
  <circle class="cls-60" cx="240" cy="153" r="6.13"/>
  <circle class="cls-61" cx="590" cy="200" r="5.75"/>
  <circle class="cls-100" cx="275" cy="240" r="5.61"/>
  <circle class="cls-97" cx="369" cy="66" r="5.01"/>
  <circle class="cls-59" cx="547" cy="195" r="4.57"/>
  <circle class="cls-61" cx="472" cy="242" r="4.5"/>
  <circle class="cls-61" cx="424" cy="269" r="4.47"/>
  <circle class="cls-100" cx="520" cy="196" r="4.28"/>
  <circle class="cls-99" cx="265" cy="435" r="4.14"/>
  <circle class="cls-62" cx="401" cy="283" r="4.1"/>
  <circle class="cls-61" cx="516" cy="261" r="4.05"/>
  <circle class="cls-61" cx="213" cy="298" r="4.02"/>
  <circle class="cls-59" cx="419" cy="212" r="3.88"/>
  <circle class="cls-59" cx="490" cy="227" r="3.88"/>
  <circle class="cls-59" cx="478" cy="204" r="3.82"/>
  <circle class="cls-60" cx="403" cy="302" r="3.54"/>
  <circle class="cls-59" cx="470" cy="224" r="3.23"/>
  <circle class="cls-71" cx="471" cy="285" r="3.17"/>
  <circle class="cls-60" cx="537" cy="162" r="3.14"/>
  <circle class="cls-71" cx="417" cy="224" r="3.08"/>
  <circle class="cls-100" cx="599" cy="174" r="2.97"/>
  <circle class="cls-99" cx="104" cy="453" r="2.81"/>
  <circle class="cls-96" cx="537" cy="182" r="2.8"/>
  <circle class="cls-100" cx="511" cy="223" r="2.48" transform="translate(109.42 609.76) rotate(-67.5)"/>
  <circle class="cls-61" cx="332" cy="296" r="2.43"/>
  <circle class="cls-62" cx="515" cy="152" r="2.39"/>
  <circle class="cls-60" cx="718" cy="144" r="2.37"/>
  <circle class="cls-99" cx="596" cy="226" r="2.25"/>
  <circle class="cls-98" cx="506" cy="199" r="2.21"/>
  <circle class="cls-62" cx="570" cy="192" r="2.19"/>
  <circle class="cls-100" cx="491" cy="159" r="2.13"/>
  <circle class="cls-100" cx="528" cy="220" r="2.08"/>
  <circle class="cls-59" cx="431" cy="230" r="2.02"/>
  <circle class="cls-59" cx="611" cy="226" r="2"/>
  <circle class="cls-62" cx="208" cy="291" r="2"/>
  <circle class="cls-59" cx="572" cy="239" r="2"/>
  <circle class="cls-60" cx="544" cy="232" r="2"/>
  <circle class="cls-99" cx="312" cy="405" r="2"/>
  <circle class="cls-59" cx="659" cy="198" r="2"/>
  <circle class="cls-99" cx="192" cy="325" r="2"/>
  <circle class="cls-100" cx="601" cy="217" r="2"/>
  <circle class="cls-100" cx="531" cy="275" r="2"/>
  <circle class="cls-59" cx="464" cy="214" r="2"/>
  <circle class="cls-59" cx="560" cy="189" r="2"/>
  <circle class="cls-100" cx="348" cy="392" r="2"/>
  <circle class="cls-59" cx="577" cy="187" r="2"/>
  <circle class="cls-59" cx="459" cy="209" r="2"/>
  <circle class="cls-99" cx="108" cy="270" r="2"/>
  <circle class="cls-59" cx="537" cy="188" r="2"/>
  <circle class="cls-60" cx="366" cy="216" r="2"/>
  <circle class="cls-61" cx="576" cy="259" r="2"/>
  <circle class="cls-61" cx="287" cy="219" r="2"/>
  <circle class="cls-62" cx="583" cy="212" r="2"/>
  <circle class="cls-59" cx="644" cy="221" r="2"/>
  <circle class="cls-99" cx="66" cy="343" r="2"/>
  <circle class="cls-59" cx="566" cy="220" r="2"/>
  <circle class="cls-60" cx="616" cy="278" r="2"/>
  <circle class="cls-99" cx="87" cy="502" r="2"/>
  <circle class="cls-62" cx="462" cy="221" r="2"/>
  <circle class="cls-100" cx="440" cy="291" r="2"/>
  <circle class="cls-59" cx="532" cy="221" r="2"/>
  <circle class="cls-59" cx="396" cy="226" r="2"/>
  <circle class="cls-59" cx="578" cy="220" r="2"/>
  <circle class="cls-59" cx="446" cy="222" r="2"/>
  <circle class="cls-99" cx="281" cy="317" r="2"/>
  <circle class="cls-100" cx="584" cy="200" r="2"/>
  <text class="cls-47" transform="translate(588 168)"><tspan x="0" y="0">China</tspan></text>
  <text class="cls-4" transform="translate(588 168)"><tspan x="0" y="0">China</tspan></text>
  <text class="cls-48" transform="translate(588 168)"><tspan x="0" y="0">China</tspan></text>
  <text class="cls-108" transform="translate(549 114.52)"><tspan x="0" y="0">India</tspan></text>
  <text class="cls-34" transform="translate(549 114.52)"><tspan x="0" y="0">India</tspan></text>
  <text class="cls-107" transform="translate(549 114.52)"><tspan x="0" y="0">India</tspan></text>
  <text class="cls-105" transform="translate(501 176.49)"><tspan x="0" y="0">United States</tspan></text>
  <text class="cls-29" transform="translate(501 176.49)"><tspan x="0" y="0">United States</tspan></text>
  <text class="cls-106" transform="translate(501 176.49)"><tspan x="0" y="0">United States</tspan></text>
  <text class="cls-82" transform="translate(645 229.59)"><tspan x="0" y="0">Indonesia</tspan></text>
  <text class="cls-25" transform="translate(645 229.59)"><tspan x="0" y="0">Indonesia</tspan></text>
  <text class="cls-85" transform="translate(645 229.59)"><tspan x="0" y="0">Indonesia</tspan></text>
  <text class="cls-65" transform="translate(296 247.29)"><tspan x="0" y="0">B</tspan><tspan class="cls-133" x="7.91" y="0">r</tspan><tspan x="12.61" y="0">azil</tspan></text>
  <text class="cls-3" transform="translate(296 247.29)"><tspan x="0" y="0">B</tspan><tspan class="cls-133" x="7.91" y="0">r</tspan><tspan x="12.61" y="0">azil</tspan></text>
  <text class="cls-66" transform="translate(296 247.29)"><tspan x="0" y="0">B</tspan><tspan class="cls-133" x="7.91" y="0">r</tspan><tspan x="12.61" y="0">azil</tspan></text>
  <text class="cls-84" transform="translate(437 209.71)"><tspan class="cls-129" x="0" y="0">P</tspan><tspan x="7.12" y="0">akistan</tspan></text>
  <text class="cls-7" transform="translate(437 209.71)"><tspan class="cls-129" x="0" y="0">P</tspan><tspan x="7.12" y="0">akistan</tspan></text>
  <text class="cls-83" transform="translate(437 209.71)"><tspan class="cls-129" x="0" y="0">P</tspan><tspan x="7.12" y="0">akistan</tspan></text>
  <text class="cls-89" transform="translate(240 145.87)"><tspan x="0" y="0">Russia</tspan></text>
  <text class="cls-33" transform="translate(240 145.87)"><tspan x="0" y="0">Russia</tspan></text>
  <text class="cls-88" transform="translate(240 145.87)"><tspan x="0" y="0">Russia</tspan></text>
  <text class="cls-101" transform="translate(590 193.25)"><tspan x="0" y="0">Bangladesh</tspan></text>
  <text class="cls-14" transform="translate(590 193.25)"><tspan x="0" y="0">Bangladesh</tspan></text>
  <text class="cls-102" transform="translate(590 193.25)"><tspan x="0" y="0">Bangladesh</tspan></text>
  <text class="cls-43" transform="translate(369 77.92)"><tspan x="0" y="0">M</tspan><tspan class="cls-119" x="10.97" y="0">e</tspan><tspan x="16.85" y="0">xico</tspan></text>
  <text class="cls-11" transform="translate(369 77.92)"><tspan x="0" y="0">M</tspan><tspan class="cls-119" x="10.97" y="0">e</tspan><tspan x="16.85" y="0">xico</tspan></text>
  <text class="cls-44" transform="translate(369 77.92)"><tspan x="0" y="0">M</tspan><tspan class="cls-119" x="10.97" y="0">e</tspan><tspan x="16.85" y="0">xico</tspan></text>
  <text class="cls-51" transform="translate(472 236.5)"><tspan x="0" y="0">Vietnam</tspan></text>
  <text class="cls-10" transform="translate(472 236.5)"><tspan x="0" y="0">Vietnam</tspan></text>
  <text class="cls-52" transform="translate(472 236.5)"><tspan x="0" y="0">Vietnam</tspan></text>
  <text class="cls-51" transform="translate(424 263.53)"><tspan x="0" y="0">Philippines</tspan></text>
  <text class="cls-10" transform="translate(424 263.53)"><tspan x="0" y="0">Philippines</tspan></text>
  <text class="cls-52" transform="translate(424 263.53)"><tspan x="0" y="0">Philippines</tspan></text>
  <text class="cls-68" transform="translate(265 429.86)"><tspan x="0" y="0">Ethiopia</tspan></text>
  <text class="cls-17" transform="translate(265 429.86)"><tspan x="0" y="0">Ethiopia</tspan></text>
  <text class="cls-69" transform="translate(265 429.86)"><tspan x="0" y="0">Ethiopia</tspan></text>
  <text class="cls-77" transform="translate(516 255.95)"><tspan class="cls-114" x="0" y="0">T</tspan><tspan class="cls-126" x="5.99" y="0">ur</tspan><tspan class="cls-118" x="17.25" y="0">k</tspan><tspan class="cls-142" x="23.05" y="0">e</tspan><tspan x="29.04" y="0">y</tspan></text>
  <text class="cls-24" transform="translate(516 255.95)"><tspan class="cls-114" x="0" y="0">T</tspan><tspan class="cls-126" x="5.99" y="0">ur</tspan><tspan class="cls-118" x="17.25" y="0">k</tspan><tspan class="cls-142" x="23.05" y="0">e</tspan><tspan x="29.04" y="0">y</tspan></text>
  <text class="cls-78" transform="translate(516 255.95)"><tspan class="cls-114" x="0" y="0">T</tspan><tspan class="cls-126" x="5.99" y="0">ur</tspan><tspan class="cls-118" x="17.25" y="0">k</tspan><tspan class="cls-142" x="23.05" y="0">e</tspan><tspan x="29.04" y="0">y</tspan></text>
  <text class="cls-77" transform="translate(213 292.98)"><tspan x="0" y="0">Thailand</tspan></text>
  <text class="cls-24" transform="translate(213 292.98)"><tspan x="0" y="0">Thailand</tspan></text>
  <text class="cls-78" transform="translate(213 292.98)"><tspan x="0" y="0">Thailand</tspan></text>
  <text class="cls-74" transform="translate(403 297.46)"><tspan x="0" y="0">Uk</tspan><tspan class="cls-134" x="14.61" y="0">r</tspan><tspan x="19.08" y="0">aine</tspan></text>
  <text class="cls-20" transform="translate(403 297.46)"><tspan x="0" y="0">Uk</tspan><tspan class="cls-134" x="14.61" y="0">r</tspan><tspan x="19.08" y="0">aine</tspan></text>
  <text class="cls-79" transform="translate(403 297.46)"><tspan x="0" y="0">Uk</tspan><tspan class="cls-134" x="14.61" y="0">r</tspan><tspan x="19.08" y="0">aine</tspan></text>
  <text class="cls-37" transform="translate(537 157.86)"><tspan class="cls-140" x="0" y="0">P</tspan><tspan x="6.9" y="0">oland</tspan></text>
  <text class="cls-19" transform="translate(537 157.86)"><tspan class="cls-140" x="0" y="0">P</tspan><tspan x="6.9" y="0">oland</tspan></text>
  <text class="cls-36" transform="translate(537 157.86)"><tspan class="cls-140" x="0" y="0">P</tspan><tspan x="6.9" y="0">oland</tspan></text>
  <text class="cls-81" transform="translate(104 449.19)"><tspan class="cls-130" x="0" y="0">K</tspan><tspan class="cls-125" x="7.64" y="0">e</tspan><tspan class="cls-138" x="13.67" y="0">n</tspan><tspan class="cls-125" x="19.9" y="0">ya</tspan></text>
  <text class="cls-5" transform="translate(104 449.19)"><tspan class="cls-130" x="0" y="0">K</tspan><tspan class="cls-125" x="7.64" y="0">e</tspan><tspan class="cls-138" x="13.67" y="0">n</tspan><tspan class="cls-125" x="19.9" y="0">ya</tspan></text>
  <text class="cls-80" transform="translate(104 449.19)"><tspan class="cls-130" x="0" y="0">K</tspan><tspan class="cls-125" x="7.64" y="0">e</tspan><tspan class="cls-138" x="13.67" y="0">n</tspan><tspan class="cls-125" x="19.9" y="0">ya</tspan></text>
  <text class="cls-39" transform="translate(332 292.57)"><tspan x="0" y="0">Mal</tspan><tspan class="cls-137" x="19.25" y="0">a</tspan><tspan x="24.87" y="0">ysia</tspan></text>
  <text class="cls-6" transform="translate(332 292.57)"><tspan x="0" y="0">Mal</tspan><tspan class="cls-137" x="19.25" y="0">a</tspan><tspan x="24.87" y="0">ysia</tspan></text>
  <text class="cls-38" transform="translate(332 292.57)"><tspan x="0" y="0">Mal</tspan><tspan class="cls-137" x="19.25" y="0">a</tspan><tspan x="24.87" y="0">ysia</tspan></text>
  <text class="cls-57" transform="translate(672.15 140.63)"><tspan x="0" y="0">Romania</tspan></text>
  <text class="cls-12" transform="translate(672.15 140.63)"><tspan x="0" y="0">Romania</tspan></text>
  <text class="cls-58" transform="translate(672.15 140.63)"><tspan x="0" y="0">Romania</tspan></text>
  <text class="cls-76" transform="translate(596 222.75)"><tspan x="0" y="0">Ghana</tspan></text>
  <text class="cls-1" transform="translate(596 222.75)"><tspan x="0" y="0">Ghana</tspan></text>
  <text class="cls-75" transform="translate(596 222.75)"><tspan x="0" y="0">Ghana</tspan></text>
  <text class="cls-86" transform="translate(506 195.79)"><tspan x="0" y="0">Aust</tspan><tspan class="cls-110" x="23.29" y="0">r</tspan><tspan x="27.67" y="0">alia</tspan></text>
  <text class="cls-27" transform="translate(506 195.79)"><tspan x="0" y="0">Aust</tspan><tspan class="cls-110" x="23.29" y="0">r</tspan><tspan x="27.67" y="0">alia</tspan></text>
  <text class="cls-87" transform="translate(506 195.79)"><tspan x="0" y="0">Aust</tspan><tspan class="cls-110" x="23.29" y="0">r</tspan><tspan x="27.67" y="0">alia</tspan></text>
  <text class="cls-91" transform="translate(544 229)"><tspan x="0" y="0">Belgium</tspan></text>
  <text class="cls-32" transform="translate(544 229)"><tspan x="0" y="0">Belgium</tspan></text>
  <text class="cls-90" transform="translate(544 229)"><tspan x="0" y="0">Belgium</tspan></text>
  <text class="cls-104" transform="translate(312 402)"><tspan x="0" y="0">Botswana</tspan></text>
  <text class="cls-23" transform="translate(312 402)"><tspan x="0" y="0">Botswana</tspan></text>
  <text class="cls-103" transform="translate(312 402)"><tspan x="0" y="0">Botswana</tspan></text>
  <text class="cls-95" transform="translate(192 322)"><tspan x="0" y="0">Burkina Faso</tspan></text>
  <text class="cls-8" transform="translate(192 322)"><tspan x="0" y="0">Burkina Faso</tspan></text>
  <text class="cls-94" transform="translate(192 322)"><tspan x="0" y="0">Burkina Faso</tspan></text>
  <text class="cls-55" transform="translate(108 267)"><tspan x="0" y="0">Guinea</tspan></text>
  <text class="cls-15" transform="translate(108 267)"><tspan x="0" y="0">Guinea</tspan></text>
  <text class="cls-56" transform="translate(108 267)"><tspan x="0" y="0">Guinea</tspan></text>
  <text class="cls-93" transform="translate(366 213)"><tspan x="0" y="0">Ireland</tspan></text>
  <text class="cls-9" transform="translate(366 213)"><tspan x="0" y="0">Ireland</tspan></text>
  <text class="cls-92" transform="translate(366 213)"><tspan x="0" y="0">Ireland</tspan></text>
  <text class="cls-40" transform="translate(576 256)"><tspan x="0" y="0">Is</tspan><tspan class="cls-132" x="8.32" y="0">r</tspan><tspan x="12.63" y="0">ael</tspan></text>
  <text class="cls-22" transform="translate(576 256)"><tspan x="0" y="0">Is</tspan><tspan class="cls-132" x="8.32" y="0">r</tspan><tspan x="12.63" y="0">ael</tspan></text>
  <text class="cls-35" transform="translate(576 256)"><tspan x="0" y="0">Is</tspan><tspan class="cls-132" x="8.32" y="0">r</tspan><tspan x="12.63" y="0">ael</tspan></text>
  <text class="cls-41" transform="translate(287 216)"><tspan x="0" y="0">Kazakhstan</tspan></text>
  <text class="cls-13" transform="translate(287 216)"><tspan x="0" y="0">Kazakhstan</tspan></text>
  <text class="cls-42" transform="translate(287 216)"><tspan x="0" y="0">Kazakhstan</tspan></text>
  <text class="cls-64" transform="translate(66 340)"><tspan class="cls-124" x="0" y="0">L</tspan><tspan x="5.52" y="0">esotho</tspan></text>
  <text class="cls-26" transform="translate(66 340)"><tspan class="cls-124" x="0" y="0">L</tspan><tspan x="5.52" y="0">esotho</tspan></text>
  <text class="cls-63" transform="translate(66 340)"><tspan class="cls-124" x="0" y="0">L</tspan><tspan x="5.52" y="0">esotho</tspan></text>
  <text class="cls-54" transform="translate(616 275)"><tspan x="0" y="0">Lu</tspan><tspan class="cls-117" x="11.83" y="0">x</tspan><tspan x="17.08" y="0">embourg</tspan></text>
  <text class="cls-31" transform="translate(616 275)"><tspan x="0" y="0">Lu</tspan><tspan class="cls-117" x="11.83" y="0">x</tspan><tspan x="17.08" y="0">embourg</tspan></text>
  <text class="cls-53" transform="translate(616 275)"><tspan x="0" y="0">Lu</tspan><tspan class="cls-117" x="11.83" y="0">x</tspan><tspan x="17.08" y="0">embourg</tspan></text>
  <text class="cls-49" transform="translate(87 499)"><tspan x="0" y="0">Mauritania</tspan></text>
  <text class="cls-21" transform="translate(87 499)"><tspan x="0" y="0">Mauritania</tspan></text>
  <text class="cls-50" transform="translate(87 499)"><tspan x="0" y="0">Mauritania</tspan></text>
  <text class="cls-72" transform="translate(281 314)"><tspan class="cls-113" x="0" y="0">T</tspan><tspan x="5.76" y="0">unisia</tspan></text>
  <text class="cls-16" transform="translate(281 314)"><tspan class="cls-113" x="0" y="0">T</tspan><tspan x="5.76" y="0">unisia</tspan></text>
  <text class="cls-73" transform="translate(281 314)"><tspan class="cls-113" x="0" y="0">T</tspan><tspan x="5.76" y="0">unisia</tspan></text>
  <rect class="cls-109" x="738.09" y="63.5" width="46.26" height="17.6"/>
  <rect class="cls-121" x="738.09" y="67.8" width="9" height="9"/>
  <text class="cls-67" transform="translate(752.09 76.96)"><tspan x="0" y="0">Africa</tspan></text>
  <rect class="cls-109" x="738.09" y="81.1" width="38.57" height="17.6"/>
  <rect class="cls-111" x="738.09" y="85.4" width="9" height="9"/>
  <text class="cls-67" transform="translate(752.09 94.56)"><tspan x="0" y="0">Asia</tspan></text>
  <rect class="cls-109" x="738.09" y="98.7" width="54.82" height="17.6"/>
  <rect class="cls-112" x="738.09" y="103" width="9" height="9"/>
  <text class="cls-67" transform="translate(752.09 112.16)"><tspan x="0" y="0">Europe</tspan></text>
  <rect class="cls-109" x="738.09" y="116.3" width="94.64" height="17.6"/>
  <rect class="cls-116" x="738.09" y="120.6" width="9" height="9"/>
  <text class="cls-67" transform="translate(752.09 129.76)"><tspan x="0" y="0">North America</tspan></text>
  <rect class="cls-109" x="738.09" y="133.9" width="61.12" height="17.6"/>
  <rect class="cls-120" x="738.09" y="138.2" width="9" height="9"/>
  <text class="cls-67" transform="translate(752.09 147.36)"><tspan x="0" y="0">Oceania</tspan></text>
  <rect class="cls-109" x="738.09" y="151.5" width="96.91" height="17.6"/>
  <rect class="cls-122" x="738.09" y="155.8" width="9" height="9"/>
  <text class="cls-67" transform="translate(752.09 164.96)"><tspan x="0" y="0">South America</tspan></text>
</svg>